
<svg width="600" height="150" xmlns="http://www.w3.org/2000/svg">
  <!-- Background -->
  <rect width="100%" height="100%" fill="#2b2b2b" />

  <!-- Red border -->
  <rect x="5" y="5" width="590" height="140" fill="none" stroke="red" stroke-width="5" />

  <!-- Left stylized emblem -->
  <g transform="translate(40, 40) scale(0.7)">
    <path d="M20,0 L25,15 L40,15 L28,25 L32,40 L20,30 L8,40 L12,25 L0,15 L15,15 Z" fill="gold" stroke="black" stroke-width="1"/>
    <circle cx="20" cy="20" r="6" fill="red" stroke="white" stroke-width="1"/>
  </g>

  <!-- Right stylized emblem -->
  <g transform="translate(520, 40) scale(0.7)">
    <path d="M20,0 L25,15 L40,15 L28,25 L32,40 L20,30 L8,40 L12,25 L0,15 L15,15 Z" fill="gold" stroke="black" stroke-width="1"/>
    <circle cx="20" cy="20" r="6" fill="red" stroke="white" stroke-width="1"/>
  </g>

  <!-- Text "СЛУЖБА" -->
  <text x="300" y="95" text-anchor="middle" fill="white" font-size="48" font-family="Georgia">СЛУЖБА</text>
</svg>
